<?xml version="1.0" standalone="no"?><!DOCTYPE svg PUBLIC "-//W3C//DTD SVG 1.1//EN" "http://www.w3.org/Graphics/SVG/1.1/DTD/svg11.dtd"><svg class="icon" height="512" viewBox="0 0 1024 1024" version="1.1" xmlns="http://www.w3.org/2000/svg"><path d="M217.344 184.672A470.464 470.464 0 0 0 40.64 552.64C40.64 812.96 251.68 1024 512 1024s471.36-211.04 471.36-471.36c0-144.928-65.856-279.136-176.704-367.968a83.072 83.072 0 0 0-116.928 12.864c-28.768 35.84-23.008 88.192 12.864 116.896a304.256 304.256 0 0 1 114.432 238.208c0 168.416-136.544 304.992-305.024 304.992s-305.024-136.576-305.024-304.992a304.256 304.256 0 0 1 114.432-238.208 83.072 83.072 0 0 0 12.864-116.896 83.072 83.072 0 0 0-116.928-12.864zM421.888 83.2v359.968a83.2 83.2 0 0 0 166.368 0V83.168a83.2 83.2 0 0 0-166.4 0z" /></svg>